<svg width="20" height="20" viewBox="0 0 20 20" fill="none" xmlns="http://www.w3.org/2000/svg">
<path d="M16.7186 5.06797C16.5726 4.67177 16.2222 4.38997 15.8038 4.33257C15.3854 4.27437 14.972 4.45197 14.7248 4.79417L14.1082 5.64697C13.9788 5.82617 14.019 6.07617 14.198 6.20557C14.3772 6.33497 14.627 6.29497 14.7564 6.11577L15.373 5.26297C15.481 5.11377 15.6344 5.11677 15.6948 5.12537C15.7556 5.13377 15.904 5.17177 15.967 5.34297L17.5008 9.56997C17.306 9.51057 17.0998 9.47817 16.886 9.47817H13.7932C12.2722 9.47817 11.3296 10.0952 10.8976 10.8654C10.334 10.5812 9.666 10.5812 9.1024 10.8654C8.6704 10.095 7.7278 9.47817 6.2068 9.47817H3.1138C2.9 9.47817 2.6936 9.51057 2.499 9.56997L4.0322 5.34477C4.096 5.17197 4.2444 5.13377 4.3052 5.12537C4.3656 5.11657 4.519 5.11357 4.627 5.26297L5.2436 6.11577C5.3732 6.29497 5.6234 6.33517 5.802 6.20557C5.981 6.07617 6.0212 5.82617 5.8918 5.64697L5.2752 4.79417C5.028 4.45217 4.6142 4.27457 4.1962 4.33257C3.778 4.38997 3.4274 4.67157 3.2808 5.06977L1.3152 10.4868C1.1166 10.8086 1 11.1862 1 11.5914V13.0032C1 14.6034 2.4804 15.6782 3.8632 15.6782H4.6718C5.9524 15.6782 7.3092 15.0822 8.3012 14.0836C8.9928 13.3876 9.3868 12.5916 9.3822 11.9004C9.3816 11.8136 9.3738 11.7262 9.3622 11.6388C9.7516 11.3918 10.2486 11.3918 10.6378 11.6388C10.6262 11.7262 10.6184 11.8134 10.6178 11.9004C10.6134 12.5916 11.0074 13.3876 11.6988 14.0836C12.6908 15.082 14.0476 15.6782 15.3282 15.6782H16.1368C17.5196 15.6782 19 14.6034 19 13.0032V11.5914C19 11.1862 18.8834 10.8086 18.6848 10.4868L16.7186 5.06797ZM7.7336 13.5198C6.9012 14.3576 5.728 14.8782 4.6718 14.8782H3.8632C3.02 14.8782 1.8 14.2104 1.8 13.0032V11.5914C1.8 10.8672 2.3894 10.278 3.1138 10.278H6.2068C7.8318 10.278 8.5772 11.1218 8.5822 11.9056C8.5854 12.3784 8.268 12.9816 7.7336 13.5198ZM18.2 13.0032C18.2 14.2104 16.98 14.8782 16.1368 14.8782H15.3282C14.272 14.8782 13.0988 14.3576 12.2664 13.5198C11.732 12.9818 11.4146 12.3784 11.4178 11.9056C11.4228 11.1218 12.1684 10.278 13.7932 10.278H16.8862C17.6106 10.278 18.2 10.8672 18.2 11.5914V13.0032Z" fill="#302F33" stroke="#302F33" stroke-width="0.7"/>
</svg>
